<?xml version="1.0" encoding="UTF-8"?>
<svg width="22px" height="31px" viewBox="0 0 22 31" version="1.1" xmlns="http://www.w3.org/2000/svg" xmlns:xlink="http://www.w3.org/1999/xlink">
    <!-- Generator: Sketch 54.1 (76490) - https://sketchapp.com -->
    <title>pin-zazcar@1,5x</title>
    <desc>Created with Sketch.</desc>
    <g id="Page-1" stroke="none" stroke-width="1" fill="none" fill-rule="evenodd">
        <g id="Home---car" transform="translate(-94.000000, -305.000000)">
            <g id="pin/zazcar" transform="translate(96.000000, 307.000000)">
                <g id="pin/pin-bike">
                    <path d="M10.5226591,23.4768749 L10.5226591,25.4768749 L9.05413757,26.7 L7.68040613,25.4768749 L7.68040613,23.4768749 L7.68040613,20.2350298 L3.09608716,15.7931026 C1.19915616,14.1430672 0,11.7115726 0,9 C0,4.02943725 4.02943725,0 9,0 C13.9705627,0 18,4.02943725 18,9 C18,11.6990052 16.8119336,14.1205226 14.9302431,15.7701099 L10.5226591,20.2 L10.5226591,23.4768749 Z" id="Combined-Shape-Copy" stroke="#FFFFFF" stroke-width="3" fill="#FFFFFF"></path>
                    <polyline id="Combined-Shape-Copy-2" stroke="#6E3E91" stroke-linecap="round" points="7.68040613 25.6 9.05413757 26.8231251 10.5226591 25.6"></polyline>
                    <path d="M3.09608716,15.7931026 C1.19915616,14.1430672 0,11.7115726 0,9 C0,4.02943725 4.02943725,0 9,0 C13.9705627,0 18,4.02943725 18,9 C18,11.6990052 16.8119336,14.1205226 14.9302431,15.7701099 L10.5226591,20.2 L10.5226591,23.4768749 L9.05413757,24.7 L7.68040613,23.4768749 L7.68040613,20.2350298 L3.09608716,15.7931026 Z" id="Combined-Shape" fill="#62269E"></path>
                    <g id="ico/car" transform="translate(5.008000, 1.246000)">
                        <g id="ico/cell" stroke-width="1">
                            <rect id="Rectangle" x="0" y="0" width="8" height="8"></rect>
                        </g>
                        <path d="M1.15466667,3.77777778 L6.84533333,3.77777778 L6.23911111,1.93955556 L1.77066667,1.93955556 L1.15466667,3.77777778 Z M6.23911111,5.80177778 C6.40859344,5.80177778 6.55199941,5.7431117 6.66933333,5.62577778 C6.78666725,5.50844386 6.84533333,5.36177866 6.84533333,5.18577778 C6.84533333,5.0097769 6.78666725,4.86474131 6.66933333,4.75066667 C6.55199941,4.63659202 6.40859344,4.57955556 6.23911111,4.57955556 C6.06962878,4.57955556 5.9245932,4.63822164 5.804,4.75555556 C5.6834068,4.87288948 5.62311111,5.01629545 5.62311111,5.18577778 C5.62311111,5.35526011 5.68177719,5.50029569 5.79911111,5.62088889 C5.91644503,5.74148208 6.06311023,5.80177778 6.23911111,5.80177778 Z M1.77066667,5.80177778 C1.940149,5.80177778 2.08355497,5.7431117 2.20088889,5.62577778 C2.31822281,5.50844386 2.37688889,5.36177866 2.37688889,5.18577778 C2.37688889,5.0097769 2.31822281,4.86474131 2.20088889,4.75066667 C2.08355497,4.63659202 1.940149,4.57955556 1.77066667,4.57955556 C1.60118434,4.57955556 1.45614875,4.63822164 1.33555556,4.75555556 C1.21496236,4.87288948 1.15466667,5.01629545 1.15466667,5.18577778 C1.15466667,5.35526011 1.21333275,5.50029569 1.33066667,5.62088889 C1.44800059,5.74148208 1.59466579,5.80177778 1.77066667,5.80177778 Z M6.82577778,1.73422222 L7.66666667,4.17866667 L7.66666667,7.44444444 C7.66666667,7.55525981 7.62755595,7.64977739 7.54933333,7.728 C7.47111072,7.80622261 7.37659315,7.84533333 7.26577778,7.84533333 L6.84533333,7.84533333 C6.73451796,7.84533333 6.64000039,7.80622261 6.56177778,7.728 C6.48355516,7.64977739 6.44444444,7.55525981 6.44444444,7.44444444 L6.44444444,7.024 L1.55555556,7.024 L1.55555556,7.44444444 C1.55555556,7.55525981 1.51644484,7.64977739 1.43822222,7.728 C1.35999961,7.80622261 1.26548204,7.84533333 1.15466667,7.84533333 L0.734222222,7.84533333 C0.623406853,7.84533333 0.52888928,7.80622261 0.450666667,7.728 C0.372444053,7.64977739 0.333333333,7.55525981 0.333333333,7.44444444 L0.333333333,4.17866667 L1.17422222,1.73422222 C1.21333353,1.61036975 1.28829574,1.51259295 1.39911111,1.44088889 C1.50992648,1.36918483 1.63377709,1.33333333 1.77066667,1.33333333 L6.23911111,1.33333333 C6.37600068,1.33333333 6.49822168,1.36918483 6.60577778,1.44088889 C6.71333387,1.51259295 6.78666647,1.61036975 6.82577778,1.73422222 Z" id="" fill="#FFFFFF"></path>
                    </g>
                    <text id="2" font-family="OpenSans-Bold, Open Sans" font-size="8" font-weight="bold" fill="#FFFFFF">
                        <tspan x="6.71679688" y="16">2</tspan>
                    </text>
                </g>
            </g>
        </g>
    </g>
</svg>